<?xml version="1.0" encoding="UTF-8" standalone="no"?>

<svg version = "1.1"

     baseProfile="full"

     xmlns = "http://www.w3.org/2000/svg"

     xmlns:xlink = "http://www.w3.org/1999/xlink"

     xmlns:ev = "http://www.w3.org/2001/xml-events"

     height = "550px"  width = "500px">

     <rect x="0" y="0" width="500" height="550" fill="lavender" stroke="black" stroke-width="2px"/>

	<rect x="50" y="150" width="300" height="350" fill="white" stroke="black" stroke-width="2px"/>
		  
  	<polygon points="150,50  450,50  350,150  50,150" fill="whitesmoke" stroke="black" stroke-width="2px"/>
		  
	<polygon points="350,150  450,50  450,400  350,500" fill="grey" stroke="black" stroke-width="2px"/>
		  
	<line x1="50" y1="200" x2="350" y2="200" stroke="black" stroke-width="2px"/>
	
	<circle cx="200" cy="350" r="100" fill="whitesmoke" stroke="black" stroke-width="2px"/>

	<circle cx="200" cy="350" r="75" fill="black" stroke="black" stroke-width="2px"/>
	
	<rect x="225" y="162" width="100" height="26" fill="black" stroke="black" stroke-width="2px"/>
		
	<text x="240" y="180" fill="white">00:13</text>
	
	<path d="M425,175 Q325,300 400,300 T 375,425" fill="none" stroke="whitesmoke" stroke-width="8px"/>
	
	<path d="M 100 350 C 125 300, 175 300, 200 350 S 275 400, 300 350 A 100 100 0 0 1 100 350 L 100 350 Z" stroke-width="1px" stroke="black" fill="cornflowerblue"/>
	
	<circle cx="200" cy="350" r="87.5" fill="none" stroke="whitesmoke" stroke-width="25px"/>
	
	<circle cx="200" cy="350" r="65" fill="none" stroke="white" stroke-width="2px"/>

</svg>